<svg width="18" height="16" viewBox="0 0 18 16" fill="none" xmlns="http://www.w3.org/2000/svg">
<path d="M16.84 1H1.16C1.072 1 1 1.07159 1 1.15909V2.43182C1 2.51932 1.072 2.59091 1.16 2.59091H16.84C16.928 2.59091 17 2.51932 17 2.43182V1.15909C17 1.07159 16.928 1 16.84 1ZM16.84 13.4091H1.16C1.072 13.4091 1 13.4807 1 13.5682V14.8409C1 14.9284 1.072 15 1.16 15H16.84C16.928 15 17 14.9284 17 14.8409V13.5682C17 13.4807 16.928 13.4091 16.84 13.4091ZM16.84 7.20455H1.16C1.072 7.20455 1 7.27614 1 7.36364V8.63636C1 8.72386 1.072 8.79545 1.16 8.79545H16.84C16.928 8.79545 17 8.72386 17 8.63636V7.36364C17 7.27614 16.928 7.20455 16.84 7.20455Z" fill="#4F5665" stroke="#4F5665" stroke-width="0.5"/>
</svg>
