<svg width="422" height="316" viewBox="0 0 422 316" fill="none" xmlns="http://www.w3.org/2000/svg">
<path d="M128.213 195.218L167.855 171.952L198.994 218.28C180.803 233.457 150.241 244.495 134.449 241.125C102.04 234.207 36.5475 142.212 27.4605 135.209C-3.4756 111.365 -13.5319 102.317 25.1787 120.844C62.0853 138.508 42.5378 120.844 51.58 120.844C62.4427 121.603 58.8432 131.241 54.8111 138.148L128.213 195.218Z" fill="url(#paint0_linear_3_2789)"/>
<path d="M353.145 159.972C341.96 152.208 297.767 138.221 278.358 132.198L257.824 134.438C244.886 137.645 217.135 143.112 204.37 148.286C191.605 153.459 168.439 169.958 146.827 183.718L151.929 201.38C156.512 217.25 168.632 229.837 184.318 235.016C188.355 260.68 191.836 302.402 191.261 315.337L341.446 315.22L348.322 251.716L379.249 255.028L405.373 235.016C372.662 178.45 367.125 169.679 353.145 159.972Z" fill="url(#paint1_linear_3_2789)"/>
<path d="M396.11 305.897C443.695 299.865 412.746 251.649 404.31 235.726C394.105 244.313 381.505 249.553 368.22 250.733L351.82 252.189L358.535 267.676L286.04 284.643L275.87 312.85C283.114 311.617 336.936 313.398 396.11 305.897Z" fill="url(#paint2_linear_3_2789)"/>
<path d="M273.297 5.61088C270.955 1.37678 264.239 -4.55097 256.107 5.61088H273.297Z" fill="#0B132A"/>
<ellipse cx="25.9206" cy="18.4664" rx="25.9206" ry="18.4664" transform="matrix(-1 0 0 1 295.314 132.198)" fill="#147E45"/>
<path d="M290.631 149.673L287.008 113.605H251.733L247.681 149.673C249.098 153.92 255.784 162.537 268.166 162.537C283.947 162.537 289.619 153.92 290.631 149.673Z" fill="url(#paint3_linear_3_2789)"/>
<mask id="mask0_3_2789" style="mask-type:alpha" maskUnits="userSpaceOnUse" x="247" y="113" width="44" height="50">
<path d="M290.632 149.673L287.008 113.605H251.734L247.675 149.746C249.091 153.993 255.8 162.538 268.182 162.538C283.963 162.538 289.62 153.92 290.632 149.673Z" fill="url(#paint4_linear_3_2789)"/>
</mask>
<g mask="url(#mask0_3_2789)">
<path opacity="0.1" d="M239.021 114.986C270.916 154.439 288.74 122.717 297.946 117.958L291.62 91.2866L253.854 86.7783L239.021 114.986Z" fill="black"/>
</g>
<path d="M270.005 128.084C308.046 128.084 314.588 73.4934 302.834 48.5234C276.389 16.2093 243.332 35.0592 230.109 48.5234C226.926 69.3317 223.415 128.084 270.005 128.084Z" fill="url(#paint5_linear_3_2789)"/>
<path d="M229.459 86.3212L236.912 80.832L235.759 76.7458L227.246 82.3574L229.459 86.3212Z" fill="#111111"/>
<path d="M307.108 84.7297L299.656 79.2405L300.809 75.1543L309.321 80.7659L307.108 84.7297Z" fill="#111111"/>
<path d="M300.288 51.8042C273.318 69.371 243.42 59.1237 231.842 51.8042C234.28 59.4909 230.826 74.266 228.795 80.6927C211.246 57.8459 216.983 45.5087 222.045 42.1959C222.889 30.8092 233.243 2.3394 268.003 3.68894C302.762 5.03848 309.507 29.6845 308.523 38.822C321.684 56.7035 313.853 74.1864 307.506 80.6927C300.288 66.6842 300.453 56.857 300.288 51.8042Z" fill="#0B132A"/>
<path opacity="0.5" d="M286.397 92.6978C291.779 92.6978 294.489 88.4576 295.178 86.5642C295.97 84.9806 296.595 80.855 294.72 77.578C292.336 73.4112 281.129 72.2492 277.203 78.1359C273.278 84.0226 277.203 92.6978 286.397 92.6978Z" fill="#E6FCFF"/>
<path opacity="0.5" d="M250.737 92.6978C245.356 92.6978 242.646 88.4576 241.957 86.5642C241.165 84.9806 240.539 80.855 242.415 77.578C244.799 73.4112 256.006 72.2492 259.931 78.1359C263.857 84.0226 259.931 92.6978 250.737 92.6978Z" fill="#E6FCFF"/>
<path fill-rule="evenodd" clip-rule="evenodd" d="M274.423 76.8372C283.2 69.1311 291.128 72.3915 295.826 74.3233C296.348 74.5382 296.83 74.7366 297.27 74.9016L300.209 74.9071C300.764 74.9081 301.212 75.3609 301.207 75.9159L301.185 78.3834C301.18 78.9322 300.734 79.3745 300.185 79.3745L298.06 79.3746C299.6 92.5955 289.848 96.1337 282.049 93.7508C275.095 91.6263 273.233 85.6148 272.862 81.8434C271.374 78.5484 264.853 80.0709 264.595 81.7703C264.589 81.8099 264.582 81.8546 264.575 81.9039C264.269 83.9732 262.726 94.3978 250.987 94.4127C241.371 94.4249 238.763 85.8366 238.661 81.541L236.174 81.519C235.622 81.5141 235.178 81.0625 235.183 80.5102L235.21 77.4905C235.215 76.9382 235.667 76.4945 236.219 76.4994L238.706 76.5214C244.97 70.1774 258.425 70.7713 263.164 76.7376C268.392 75.532 272.848 76.3017 274.423 76.8372ZM286.397 92.6976C291.779 92.6976 294.489 88.4573 295.178 86.5639C295.97 84.9804 296.595 80.8547 294.72 77.5777C292.336 73.4109 281.129 72.2489 277.203 78.1356C273.278 84.0224 277.203 92.6976 286.397 92.6976ZM241.956 86.5639C242.644 88.4573 245.354 92.6976 250.736 92.6976C259.93 92.6976 263.856 84.0224 259.93 78.1356C256.005 72.2489 244.798 73.4109 242.413 77.5777C240.538 80.8547 241.164 84.9804 241.956 86.5639Z" fill="#111111"/>
<path d="M344.627 309.986C344.627 309.432 344.178 308.984 343.625 308.984H189.541C188.572 308.984 187.787 309.769 187.787 310.738C187.787 313.644 190.143 316 193.049 316H338.613C341.934 316 344.627 313.307 344.627 309.986Z" fill="#B4B4B4"/>
<rect width="156.84" height="104.909" rx="2.94666" transform="matrix(-1 0 0 1 344.627 206.68)" fill="url(#paint6_linear_3_2789)"/>
<ellipse cx="11.1541" cy="11.1512" rx="11.1541" ry="11.1512" transform="matrix(-1 0 0 1 277.361 247.983)" fill="white"/>
<defs>
<linearGradient id="paint0_linear_3_2789" x1="118.101" y1="60.1854" x2="115.461" y2="235.656" gradientUnits="userSpaceOnUse">
<stop stop-color="#FFEFE0"/>
<stop offset="1" stop-color="#FFBE99"/>
</linearGradient>
<linearGradient id="paint1_linear_3_2789" x1="266.311" y1="101.978" x2="278.68" y2="349.755" gradientUnits="userSpaceOnUse">
<stop stop-color="#147E45"/>
<stop offset="1" stop-color="#147E45"/>
</linearGradient>
<linearGradient id="paint2_linear_3_2789" x1="281.346" y1="189.056" x2="399.769" y2="245.826" gradientUnits="userSpaceOnUse">
<stop offset="0.0677966" stop-color="#FFEFE0"/>
<stop offset="1" stop-color="#FFBE99"/>
</linearGradient>
<linearGradient id="paint3_linear_3_2789" x1="270.373" y1="74.8063" x2="268.298" y2="141.043" gradientUnits="userSpaceOnUse">
<stop stop-color="#FFEFE0"/>
<stop offset="1" stop-color="#FFBE99"/>
</linearGradient>
<linearGradient id="paint4_linear_3_2789" x1="270.374" y1="74.8063" x2="273.28" y2="150.266" gradientUnits="userSpaceOnUse">
<stop stop-color="#FFEFE0"/>
<stop offset="1" stop-color="#FFBE99"/>
</linearGradient>
<linearGradient id="paint5_linear_3_2789" x1="266.924" y1="39.494" x2="266.924" y2="119.033" gradientUnits="userSpaceOnUse">
<stop stop-color="#FFEFE0"/>
<stop offset="1" stop-color="#FFBE99"/>
</linearGradient>
<linearGradient id="paint6_linear_3_2789" x1="110.806" y1="-78.7347" x2="52.8446" y2="129.297" gradientUnits="userSpaceOnUse">
<stop offset="0.0171777" stop-color="white"/>
<stop offset="1" stop-color="#D7D7D7"/>
</linearGradient>
</defs>
</svg>
