<svg width="246" height="23" viewBox="0 0 246 23" fill="none" xmlns="http://www.w3.org/2000/svg">
<path d="M7.944 18.24C6.344 18.24 5.016 18.016 3.96 17.568C2.904 17.104 2.104 16.504 1.56 15.768C1.016 15.032 0.728 14.248 0.696 13.416C0.696 13.288 0.744 13.176 0.84 13.08C0.952 12.968 1.08 12.912 1.224 12.912H4.248C4.472 12.912 4.64 12.952 4.752 13.032C4.88 13.112 4.992 13.216 5.088 13.344C5.216 13.584 5.392 13.816 5.616 14.04C5.856 14.264 6.16 14.448 6.528 14.592C6.912 14.72 7.384 14.784 7.944 14.784C8.872 14.784 9.568 14.64 10.032 14.352C10.512 14.064 10.752 13.672 10.752 13.176C10.752 12.824 10.624 12.536 10.368 12.312C10.112 12.072 9.696 11.864 9.12 11.688C8.56 11.496 7.808 11.304 6.864 11.112C5.648 10.856 4.608 10.528 3.744 10.128C2.896 9.712 2.248 9.176 1.8 8.52C1.352 7.848 1.128 7.016 1.128 6.024C1.128 5.048 1.4 4.176 1.944 3.408C2.504 2.64 3.28 2.04 4.272 1.608C5.264 1.176 6.44 0.959999 7.8 0.959999C8.904 0.959999 9.872 1.104 10.704 1.392C11.552 1.68 12.264 2.064 12.84 2.544C13.416 3.024 13.848 3.536 14.136 4.08C14.44 4.608 14.6 5.128 14.616 5.64C14.616 5.768 14.568 5.888 14.472 6C14.376 6.096 14.256 6.144 14.112 6.144H10.944C10.768 6.144 10.616 6.112 10.488 6.048C10.36 5.984 10.248 5.88 10.152 5.736C10.056 5.384 9.8 5.08 9.384 4.824C8.984 4.552 8.456 4.416 7.8 4.416C7.096 4.416 6.544 4.544 6.144 4.8C5.76 5.04 5.568 5.416 5.568 5.928C5.568 6.248 5.672 6.528 5.88 6.768C6.104 7.008 6.464 7.216 6.96 7.392C7.472 7.568 8.168 7.752 9.048 7.944C10.504 8.216 11.68 8.56 12.576 8.976C13.472 9.376 14.128 9.904 14.544 10.56C14.96 11.2 15.168 12.008 15.168 12.984C15.168 14.072 14.856 15.016 14.232 15.816C13.624 16.6 12.776 17.2 11.688 17.616C10.6 18.032 9.352 18.24 7.944 18.24ZM23.0426 18.24C21.8586 18.24 20.8106 18.024 19.8986 17.592C18.9866 17.16 18.2586 16.536 17.7146 15.72C17.1866 14.888 16.8986 13.896 16.8506 12.744C16.8346 12.488 16.8266 12.168 16.8266 11.784C16.8266 11.384 16.8346 11.056 16.8506 10.8C16.8986 9.632 17.1866 8.64 17.7146 7.824C18.2426 6.992 18.9626 6.36 19.8746 5.928C20.8026 5.496 21.8586 5.28 23.0426 5.28C24.1466 5.28 25.0906 5.44 25.8746 5.76C26.6586 6.064 27.2986 6.448 27.7946 6.912C28.2906 7.376 28.6586 7.856 28.8986 8.352C29.1546 8.832 29.2906 9.256 29.3066 9.624C29.3226 9.784 29.2666 9.928 29.1386 10.056C29.0106 10.168 28.8666 10.224 28.7066 10.224H25.6586C25.4826 10.224 25.3466 10.184 25.2506 10.104C25.1546 10.024 25.0666 9.904 24.9866 9.744C24.7946 9.248 24.5466 8.896 24.2426 8.688C23.9546 8.48 23.5786 8.376 23.1146 8.376C22.4746 8.376 21.9786 8.584 21.6266 9C21.2906 9.416 21.1066 10.056 21.0746 10.92C21.0586 11.56 21.0586 12.128 21.0746 12.624C21.1066 13.504 21.2906 14.144 21.6266 14.544C21.9786 14.944 22.4746 15.144 23.1146 15.144C23.6106 15.144 24.0026 15.04 24.2906 14.832C24.5786 14.624 24.8106 14.272 24.9866 13.776C25.0666 13.616 25.1546 13.496 25.2506 13.416C25.3466 13.336 25.4826 13.296 25.6586 13.296H28.7066C28.8666 13.296 29.0106 13.36 29.1386 13.488C29.2666 13.6 29.3226 13.736 29.3066 13.896C29.2906 14.168 29.2106 14.488 29.0666 14.856C28.9226 15.208 28.6986 15.584 28.3946 15.984C28.0906 16.384 27.6906 16.76 27.1946 17.112C26.7146 17.448 26.1306 17.72 25.4426 17.928C24.7546 18.136 23.9546 18.24 23.0426 18.24ZM32.0629 18C31.8869 18 31.7429 17.944 31.6309 17.832C31.5189 17.72 31.4629 17.576 31.4629 17.4V6.12C31.4629 5.944 31.5189 5.8 31.6309 5.688C31.7429 5.576 31.8869 5.52 32.0629 5.52H34.8949C35.0549 5.52 35.1909 5.576 35.3029 5.688C35.4309 5.8 35.4949 5.944 35.4949 6.12V17.4C35.4949 17.576 35.4309 17.72 35.3029 17.832C35.1909 17.944 35.0549 18 34.8949 18H32.0629ZM32.0389 3.72C31.8629 3.72 31.7189 3.664 31.6069 3.552C31.4949 3.44 31.4389 3.296 31.4389 3.12V0.983999C31.4389 0.807999 31.4949 0.663999 31.6069 0.551999C31.7189 0.423999 31.8629 0.36 32.0389 0.36H34.8949C35.0709 0.36 35.2149 0.423999 35.3269 0.551999C35.4549 0.663999 35.5189 0.807999 35.5189 0.983999V3.12C35.5189 3.296 35.4549 3.44 35.3269 3.552C35.2149 3.664 35.0709 3.72 34.8949 3.72H32.0389ZM44.1838 18.24C42.2958 18.24 40.7918 17.728 39.6718 16.704C38.5518 15.68 37.9678 14.16 37.9198 12.144C37.9198 12.032 37.9198 11.888 37.9198 11.712C37.9198 11.536 37.9198 11.4 37.9198 11.304C37.9678 10.04 38.2478 8.96 38.7598 8.064C39.2878 7.152 40.0078 6.464 40.9198 6C41.8478 5.52 42.9278 5.28 44.1598 5.28C45.5678 5.28 46.7278 5.56 47.6398 6.12C48.5678 6.68 49.2638 7.44 49.7278 8.4C50.1918 9.36 50.4238 10.456 50.4238 11.688V12.264C50.4238 12.44 50.3598 12.584 50.2318 12.696C50.1198 12.808 49.9838 12.864 49.8238 12.864H42.1438C42.1438 12.88 42.1438 12.904 42.1438 12.936C42.1438 12.968 42.1438 13 42.1438 13.032C42.1598 13.496 42.2398 13.92 42.3838 14.304C42.5278 14.688 42.7518 14.992 43.0558 15.216C43.3598 15.44 43.7278 15.552 44.1598 15.552C44.4798 15.552 44.7438 15.504 44.9518 15.408C45.1758 15.296 45.3598 15.176 45.5038 15.048C45.6478 14.904 45.7598 14.784 45.8398 14.688C45.9838 14.528 46.0958 14.432 46.1758 14.4C46.2718 14.352 46.4158 14.328 46.6078 14.328H49.5838C49.7438 14.328 49.8718 14.376 49.9678 14.472C50.0798 14.552 50.1278 14.672 50.1118 14.832C50.0958 15.104 49.9598 15.432 49.7038 15.816C49.4478 16.2 49.0718 16.584 48.5758 16.968C48.0958 17.336 47.4878 17.64 46.7518 17.88C46.0158 18.12 45.1598 18.24 44.1838 18.24ZM42.1438 10.488H46.1998V10.44C46.1998 9.928 46.1198 9.48 45.9598 9.096C45.8158 8.712 45.5838 8.416 45.2638 8.208C44.9598 8 44.5918 7.896 44.1598 7.896C43.7278 7.896 43.3598 8 43.0558 8.208C42.7678 8.416 42.5438 8.712 42.3838 9.096C42.2238 9.48 42.1438 9.928 42.1438 10.44V10.488ZM53.2738 18C53.0978 18 52.9538 17.944 52.8418 17.832C52.7298 17.72 52.6738 17.576 52.6738 17.4V6.12C52.6738 5.944 52.7298 5.8 52.8418 5.688C52.9538 5.576 53.0978 5.52 53.2738 5.52H56.0338C56.2098 5.52 56.3538 5.576 56.4658 5.688C56.5778 5.8 56.6338 5.944 56.6338 6.12V7.032C57.0498 6.536 57.5938 6.12 58.2658 5.784C58.9378 5.448 59.7298 5.28 60.6418 5.28C61.5698 5.28 62.3858 5.488 63.0898 5.904C63.8098 6.32 64.3698 6.936 64.7698 7.752C65.1858 8.552 65.3938 9.536 65.3938 10.704V17.4C65.3938 17.576 65.3298 17.72 65.2018 17.832C65.0898 17.944 64.9538 18 64.7938 18H61.7698C61.6098 18 61.4658 17.944 61.3378 17.832C61.2258 17.72 61.1698 17.576 61.1698 17.4V10.848C61.1698 10.096 60.9858 9.52 60.6178 9.12C60.2658 8.704 59.7378 8.496 59.0338 8.496C58.3778 8.496 57.8498 8.704 57.4498 9.12C57.0658 9.52 56.8738 10.096 56.8738 10.848V17.4C56.8738 17.576 56.8098 17.72 56.6818 17.832C56.5698 17.944 56.4338 18 56.2738 18H53.2738ZM74.3391 18C73.3151 18 72.4271 17.84 71.6751 17.52C70.9391 17.184 70.3711 16.672 69.9711 15.984C69.5711 15.28 69.3711 14.376 69.3711 13.272V8.664H67.4991C67.3231 8.664 67.1711 8.608 67.0431 8.496C66.9311 8.384 66.8751 8.24 66.8751 8.064V6.12C66.8751 5.944 66.9311 5.8 67.0431 5.688C67.1711 5.576 67.3231 5.52 67.4991 5.52H69.3711V1.56C69.3711 1.384 69.4271 1.24 69.5391 1.128C69.6671 1.016 69.8111 0.959999 69.9711 0.959999H72.7551C72.9311 0.959999 73.0751 1.016 73.1871 1.128C73.2991 1.24 73.3551 1.384 73.3551 1.56V5.52H76.3551C76.5311 5.52 76.6751 5.576 76.7871 5.688C76.8991 5.8 76.9551 5.944 76.9551 6.12V8.064C76.9551 8.24 76.8991 8.384 76.7871 8.496C76.6751 8.608 76.5311 8.664 76.3551 8.664H73.3551V12.936C73.3551 13.48 73.4591 13.912 73.6671 14.232C73.8751 14.552 74.2271 14.712 74.7231 14.712H76.5711C76.7471 14.712 76.8911 14.768 77.0031 14.88C77.1151 14.992 77.1711 15.136 77.1711 15.312V17.4C77.1711 17.576 77.1151 17.72 77.0031 17.832C76.8911 17.944 76.7471 18 76.5711 18H74.3391ZM79.7582 18C79.5822 18 79.4382 17.944 79.3262 17.832C79.2142 17.72 79.1582 17.576 79.1582 17.4V6.12C79.1582 5.944 79.2142 5.8 79.3262 5.688C79.4382 5.576 79.5822 5.52 79.7582 5.52H82.5902C82.7502 5.52 82.8862 5.576 82.9982 5.688C83.1262 5.8 83.1902 5.944 83.1902 6.12V17.4C83.1902 17.576 83.1262 17.72 82.9982 17.832C82.8862 17.944 82.7502 18 82.5902 18H79.7582ZM79.7342 3.72C79.5582 3.72 79.4142 3.664 79.3022 3.552C79.1902 3.44 79.1342 3.296 79.1342 3.12V0.983999C79.1342 0.807999 79.1902 0.663999 79.3022 0.551999C79.4142 0.423999 79.5582 0.36 79.7342 0.36H82.5902C82.7662 0.36 82.9102 0.423999 83.0222 0.551999C83.1502 0.663999 83.2142 0.807999 83.2142 0.983999V3.12C83.2142 3.296 83.1502 3.44 83.0222 3.552C82.9102 3.664 82.7662 3.72 82.5902 3.72H79.7342ZM88.0179 18C87.8579 18 87.7139 17.944 87.5859 17.832C87.4739 17.72 87.4179 17.576 87.4179 17.4V8.664H85.5939C85.4179 8.664 85.2739 8.608 85.1619 8.496C85.0499 8.384 84.9939 8.24 84.9939 8.064V6.12C84.9939 5.944 85.0499 5.8 85.1619 5.688C85.2739 5.576 85.4179 5.52 85.5939 5.52H87.4179V4.752C87.4179 3.664 87.6259 2.792 88.0419 2.136C88.4739 1.464 89.0819 0.984 89.8659 0.696C90.6499 0.392 91.5859 0.24 92.6739 0.24H98.8179C98.9779 0.24 99.1139 0.296 99.2259 0.407999C99.3539 0.52 99.4179 0.664 99.4179 0.839999V2.784C99.4179 2.96 99.3539 3.104 99.2259 3.216C99.1139 3.328 98.9779 3.384 98.8179 3.384H92.8659C92.3219 3.384 91.9379 3.512 91.7139 3.768C91.5059 4.024 91.4019 4.392 91.4019 4.872V5.52H98.8179C98.9779 5.52 99.1139 5.576 99.2259 5.688C99.3539 5.8 99.4179 5.944 99.4179 6.12V17.4C99.4179 17.576 99.3539 17.72 99.2259 17.832C99.1139 17.944 98.9779 18 98.8179 18H96.0339C95.8579 18 95.7139 17.944 95.6019 17.832C95.4899 17.72 95.4339 17.576 95.4339 17.4V8.664H91.4019V17.4C91.4019 17.576 91.3459 17.72 91.2339 17.832C91.1219 17.944 90.9779 18 90.8019 18H88.0179ZM108.074 18.24C106.89 18.24 105.842 18.024 104.93 17.592C104.018 17.16 103.29 16.536 102.746 15.72C102.218 14.888 101.93 13.896 101.882 12.744C101.866 12.488 101.858 12.168 101.858 11.784C101.858 11.384 101.866 11.056 101.882 10.8C101.93 9.632 102.218 8.64 102.746 7.824C103.274 6.992 103.994 6.36 104.906 5.928C105.834 5.496 106.89 5.28 108.074 5.28C109.178 5.28 110.122 5.44 110.906 5.76C111.69 6.064 112.33 6.448 112.826 6.912C113.322 7.376 113.69 7.856 113.93 8.352C114.186 8.832 114.322 9.256 114.338 9.624C114.354 9.784 114.298 9.928 114.17 10.056C114.042 10.168 113.898 10.224 113.738 10.224H110.69C110.514 10.224 110.378 10.184 110.282 10.104C110.186 10.024 110.098 9.904 110.018 9.744C109.826 9.248 109.578 8.896 109.274 8.688C108.986 8.48 108.61 8.376 108.146 8.376C107.506 8.376 107.01 8.584 106.658 9C106.322 9.416 106.138 10.056 106.106 10.92C106.09 11.56 106.09 12.128 106.106 12.624C106.138 13.504 106.322 14.144 106.658 14.544C107.01 14.944 107.506 15.144 108.146 15.144C108.642 15.144 109.034 15.04 109.322 14.832C109.61 14.624 109.842 14.272 110.018 13.776C110.098 13.616 110.186 13.496 110.282 13.416C110.378 13.336 110.514 13.296 110.69 13.296H113.738C113.898 13.296 114.042 13.36 114.17 13.488C114.298 13.6 114.354 13.736 114.338 13.896C114.322 14.168 114.242 14.488 114.098 14.856C113.954 15.208 113.73 15.584 113.426 15.984C113.122 16.384 112.722 16.76 112.226 17.112C111.746 17.448 111.162 17.72 110.474 17.928C109.786 18.136 108.986 18.24 108.074 18.24Z" fill="#147E45"/>
<path d="M117.358 18C117.182 18 117.038 17.944 116.926 17.832C116.814 17.72 116.758 17.576 116.758 17.4V1.8C116.758 1.624 116.814 1.48 116.926 1.368C117.038 1.256 117.182 1.2 117.358 1.2H128.566C128.742 1.2 128.886 1.256 128.998 1.368C129.11 1.48 129.166 1.624 129.166 1.8V4.056C129.166 4.232 129.11 4.376 128.998 4.488C128.886 4.6 128.742 4.656 128.566 4.656H120.91V7.896H128.038C128.214 7.896 128.358 7.96 128.47 8.088C128.582 8.2 128.638 8.344 128.638 8.52V10.608C128.638 10.768 128.582 10.912 128.47 11.04C128.358 11.152 128.214 11.208 128.038 11.208H120.91V14.544H128.758C128.934 14.544 129.078 14.6 129.19 14.712C129.302 14.824 129.358 14.968 129.358 15.144V17.4C129.358 17.576 129.302 17.72 129.19 17.832C129.078 17.944 128.934 18 128.758 18H117.358ZM140.536 22.56C140.36 22.56 140.216 22.504 140.104 22.392C139.992 22.28 139.936 22.136 139.936 21.96V16.632C139.568 17.144 139.088 17.544 138.496 17.832C137.904 18.104 137.216 18.24 136.432 18.24C135.648 18.24 134.944 18.112 134.32 17.856C133.696 17.584 133.168 17.208 132.736 16.728C132.304 16.248 131.968 15.664 131.728 14.976C131.488 14.288 131.352 13.512 131.32 12.648C131.304 12.328 131.296 12.032 131.296 11.76C131.296 11.488 131.304 11.192 131.32 10.872C131.368 9.976 131.512 9.184 131.752 8.496C131.992 7.808 132.328 7.224 132.76 6.744C133.192 6.264 133.712 5.904 134.32 5.664C134.944 5.408 135.648 5.28 136.432 5.28C137.328 5.28 138.08 5.448 138.688 5.784C139.296 6.104 139.784 6.512 140.152 7.008V6.12C140.152 5.944 140.208 5.8 140.32 5.688C140.448 5.576 140.592 5.52 140.752 5.52H143.464C143.64 5.52 143.784 5.576 143.896 5.688C144.008 5.8 144.064 5.944 144.064 6.12V21.96C144.064 22.136 144.008 22.28 143.896 22.392C143.784 22.504 143.64 22.56 143.464 22.56H140.536ZM137.728 15.024C138.224 15.024 138.632 14.92 138.952 14.712C139.272 14.488 139.512 14.208 139.672 13.872C139.832 13.52 139.92 13.144 139.936 12.744C139.968 12.424 139.984 12.12 139.984 11.832C139.984 11.544 139.968 11.248 139.936 10.944C139.92 10.512 139.84 10.112 139.696 9.744C139.552 9.376 139.32 9.08 139 8.856C138.68 8.616 138.256 8.496 137.728 8.496C137.2 8.496 136.776 8.608 136.456 8.832C136.152 9.056 135.928 9.36 135.784 9.744C135.656 10.128 135.576 10.552 135.544 11.016C135.512 11.512 135.512 12.008 135.544 12.504C135.576 12.968 135.656 13.392 135.784 13.776C135.928 14.16 136.152 14.464 136.456 14.688C136.776 14.912 137.2 15.024 137.728 15.024ZM151.477 18.24C150.565 18.24 149.749 18.032 149.029 17.616C148.325 17.2 147.773 16.592 147.373 15.792C146.973 14.976 146.773 13.984 146.773 12.816V6.12C146.773 5.944 146.829 5.8 146.941 5.688C147.053 5.576 147.197 5.52 147.373 5.52H150.373C150.549 5.52 150.693 5.576 150.805 5.688C150.917 5.8 150.973 5.944 150.973 6.12V12.672C150.973 14.24 151.677 15.024 153.085 15.024C153.741 15.024 154.261 14.824 154.645 14.424C155.045 14.008 155.245 13.424 155.245 12.672V6.12C155.245 5.944 155.301 5.8 155.413 5.688C155.525 5.576 155.669 5.52 155.845 5.52H158.845C159.021 5.52 159.165 5.576 159.277 5.688C159.389 5.8 159.445 5.944 159.445 6.12V17.4C159.445 17.576 159.389 17.72 159.277 17.832C159.165 17.944 159.021 18 158.845 18H156.061C155.901 18 155.757 17.944 155.629 17.832C155.517 17.72 155.461 17.576 155.461 17.4V16.488C155.045 17.064 154.501 17.504 153.829 17.808C153.173 18.096 152.389 18.24 151.477 18.24ZM162.868 18C162.692 18 162.548 17.944 162.436 17.832C162.324 17.72 162.268 17.576 162.268 17.4V6.12C162.268 5.944 162.324 5.8 162.436 5.688C162.548 5.576 162.692 5.52 162.868 5.52H165.7C165.86 5.52 165.996 5.576 166.108 5.688C166.236 5.8 166.3 5.944 166.3 6.12V17.4C166.3 17.576 166.236 17.72 166.108 17.832C165.996 17.944 165.86 18 165.7 18H162.868ZM162.844 3.72C162.668 3.72 162.524 3.664 162.412 3.552C162.3 3.44 162.244 3.296 162.244 3.12V0.983999C162.244 0.807999 162.3 0.663999 162.412 0.551999C162.524 0.423999 162.668 0.36 162.844 0.36H165.7C165.876 0.36 166.02 0.423999 166.132 0.551999C166.26 0.663999 166.324 0.807999 166.324 0.983999V3.12C166.324 3.296 166.26 3.44 166.132 3.552C166.02 3.664 165.876 3.72 165.7 3.72H162.844ZM170.461 22.56C170.285 22.56 170.141 22.504 170.029 22.392C169.917 22.28 169.861 22.136 169.861 21.96V6.12C169.861 5.944 169.917 5.8 170.029 5.688C170.141 5.576 170.285 5.52 170.461 5.52H173.173C173.333 5.52 173.469 5.576 173.581 5.688C173.709 5.8 173.773 5.944 173.773 6.12V7.008C174.141 6.512 174.629 6.104 175.237 5.784C175.845 5.448 176.597 5.28 177.493 5.28C178.293 5.28 178.997 5.408 179.605 5.664C180.213 5.904 180.733 6.264 181.165 6.744C181.597 7.224 181.933 7.808 182.173 8.496C182.429 9.184 182.573 9.976 182.605 10.872C182.621 11.192 182.629 11.488 182.629 11.76C182.629 12.032 182.621 12.328 182.605 12.648C182.573 13.512 182.437 14.288 182.197 14.976C181.957 15.664 181.621 16.248 181.189 16.728C180.757 17.208 180.229 17.584 179.605 17.856C178.997 18.112 178.293 18.24 177.493 18.24C176.709 18.24 176.021 18.104 175.429 17.832C174.853 17.544 174.373 17.144 173.989 16.632V21.96C173.989 22.136 173.933 22.28 173.821 22.392C173.709 22.504 173.565 22.56 173.389 22.56H170.461ZM176.197 15.024C176.741 15.024 177.165 14.912 177.469 14.688C177.773 14.464 177.989 14.16 178.117 13.776C178.261 13.392 178.349 12.968 178.381 12.504C178.413 12.008 178.413 11.512 178.381 11.016C178.349 10.552 178.261 10.128 178.117 9.744C177.989 9.36 177.773 9.056 177.469 8.832C177.165 8.608 176.741 8.496 176.197 8.496C175.669 8.496 175.245 8.616 174.925 8.856C174.605 9.08 174.373 9.376 174.229 9.744C174.085 10.112 174.005 10.512 173.989 10.944C173.973 11.248 173.965 11.544 173.965 11.832C173.965 12.12 173.973 12.424 173.989 12.744C174.005 13.144 174.093 13.52 174.253 13.872C174.413 14.208 174.653 14.488 174.973 14.712C175.293 14.92 175.701 15.024 176.197 15.024ZM185.602 18C185.426 18 185.282 17.944 185.17 17.832C185.058 17.72 185.002 17.576 185.002 17.4V6.12C185.002 5.944 185.058 5.8 185.17 5.688C185.282 5.576 185.426 5.52 185.602 5.52H188.218C188.394 5.52 188.538 5.576 188.65 5.688C188.762 5.8 188.818 5.944 188.818 6.12V6.936C189.138 6.504 189.586 6.128 190.162 5.808C190.738 5.472 191.418 5.296 192.202 5.28C194.042 5.248 195.306 5.944 195.994 7.368C196.362 6.76 196.89 6.264 197.578 5.88C198.266 5.48 199.018 5.28 199.834 5.28C200.666 5.28 201.41 5.472 202.066 5.856C202.738 6.224 203.274 6.8 203.674 7.584C204.074 8.352 204.274 9.352 204.274 10.584V17.4C204.274 17.576 204.21 17.72 204.082 17.832C203.97 17.944 203.834 18 203.674 18H200.89C200.714 18 200.562 17.944 200.434 17.832C200.322 17.72 200.266 17.576 200.266 17.4V10.752C200.266 10.192 200.186 9.752 200.026 9.432C199.866 9.096 199.65 8.856 199.378 8.712C199.106 8.568 198.794 8.496 198.442 8.496C198.154 8.496 197.866 8.568 197.578 8.712C197.306 8.856 197.082 9.096 196.906 9.432C196.746 9.752 196.666 10.192 196.666 10.752V17.4C196.666 17.576 196.61 17.72 196.498 17.832C196.386 17.944 196.242 18 196.066 18H193.282C193.106 18 192.962 17.944 192.85 17.832C192.738 17.72 192.682 17.576 192.682 17.4V10.752C192.682 10.192 192.594 9.752 192.418 9.432C192.242 9.096 192.018 8.856 191.746 8.712C191.474 8.568 191.17 8.496 190.834 8.496C190.546 8.496 190.258 8.568 189.97 8.712C189.698 8.856 189.474 9.096 189.298 9.432C189.138 9.752 189.058 10.184 189.058 10.728V17.4C189.058 17.576 188.994 17.72 188.866 17.832C188.754 17.944 188.61 18 188.434 18H185.602ZM212.723 18.24C210.835 18.24 209.331 17.728 208.211 16.704C207.091 15.68 206.507 14.16 206.459 12.144C206.459 12.032 206.459 11.888 206.459 11.712C206.459 11.536 206.459 11.4 206.459 11.304C206.507 10.04 206.787 8.96 207.299 8.064C207.827 7.152 208.547 6.464 209.459 6C210.387 5.52 211.467 5.28 212.699 5.28C214.107 5.28 215.267 5.56 216.179 6.12C217.107 6.68 217.803 7.44 218.267 8.4C218.731 9.36 218.963 10.456 218.963 11.688V12.264C218.963 12.44 218.899 12.584 218.771 12.696C218.659 12.808 218.523 12.864 218.363 12.864H210.683C210.683 12.88 210.683 12.904 210.683 12.936C210.683 12.968 210.683 13 210.683 13.032C210.699 13.496 210.779 13.92 210.923 14.304C211.067 14.688 211.291 14.992 211.595 15.216C211.899 15.44 212.267 15.552 212.699 15.552C213.019 15.552 213.283 15.504 213.491 15.408C213.715 15.296 213.899 15.176 214.043 15.048C214.187 14.904 214.299 14.784 214.379 14.688C214.523 14.528 214.635 14.432 214.715 14.4C214.811 14.352 214.955 14.328 215.147 14.328H218.123C218.283 14.328 218.411 14.376 218.507 14.472C218.619 14.552 218.667 14.672 218.651 14.832C218.635 15.104 218.499 15.432 218.243 15.816C217.987 16.2 217.611 16.584 217.115 16.968C216.635 17.336 216.027 17.64 215.291 17.88C214.555 18.12 213.699 18.24 212.723 18.24ZM210.683 10.488H214.739V10.44C214.739 9.928 214.659 9.48 214.499 9.096C214.355 8.712 214.123 8.416 213.803 8.208C213.499 8 213.131 7.896 212.699 7.896C212.267 7.896 211.899 8 211.595 8.208C211.307 8.416 211.083 8.712 210.923 9.096C210.763 9.48 210.683 9.928 210.683 10.44V10.488ZM221.813 18C221.637 18 221.493 17.944 221.381 17.832C221.269 17.72 221.213 17.576 221.213 17.4V6.12C221.213 5.944 221.269 5.8 221.381 5.688C221.493 5.576 221.637 5.52 221.813 5.52H224.573C224.749 5.52 224.893 5.576 225.005 5.688C225.117 5.8 225.173 5.944 225.173 6.12V7.032C225.589 6.536 226.133 6.12 226.805 5.784C227.477 5.448 228.269 5.28 229.181 5.28C230.109 5.28 230.925 5.488 231.629 5.904C232.349 6.32 232.909 6.936 233.309 7.752C233.725 8.552 233.933 9.536 233.933 10.704V17.4C233.933 17.576 233.869 17.72 233.741 17.832C233.629 17.944 233.493 18 233.333 18H230.309C230.149 18 230.005 17.944 229.877 17.832C229.765 17.72 229.709 17.576 229.709 17.4V10.848C229.709 10.096 229.525 9.52 229.157 9.12C228.805 8.704 228.277 8.496 227.573 8.496C226.917 8.496 226.389 8.704 225.989 9.12C225.605 9.52 225.413 10.096 225.413 10.848V17.4C225.413 17.576 225.349 17.72 225.221 17.832C225.109 17.944 224.973 18 224.813 18H221.813ZM242.878 18C241.854 18 240.966 17.84 240.214 17.52C239.478 17.184 238.91 16.672 238.51 15.984C238.11 15.28 237.91 14.376 237.91 13.272V8.664H236.038C235.862 8.664 235.71 8.608 235.582 8.496C235.47 8.384 235.414 8.24 235.414 8.064V6.12C235.414 5.944 235.47 5.8 235.582 5.688C235.71 5.576 235.862 5.52 236.038 5.52H237.91V1.56C237.91 1.384 237.966 1.24 238.078 1.128C238.206 1.016 238.35 0.959999 238.51 0.959999H241.294C241.47 0.959999 241.614 1.016 241.726 1.128C241.838 1.24 241.894 1.384 241.894 1.56V5.52H244.894C245.07 5.52 245.214 5.576 245.326 5.688C245.438 5.8 245.494 5.944 245.494 6.12V8.064C245.494 8.24 245.438 8.384 245.326 8.496C245.214 8.608 245.07 8.664 244.894 8.664H241.894V12.936C241.894 13.48 241.998 13.912 242.206 14.232C242.414 14.552 242.766 14.712 243.262 14.712H245.11C245.286 14.712 245.43 14.768 245.542 14.88C245.654 14.992 245.71 15.136 245.71 15.312V17.4C245.71 17.576 245.654 17.72 245.542 17.832C245.43 17.944 245.286 18 245.11 18H242.878Z" fill="#0B132A"/>
</svg>
